<svg width="74" height="72" viewBox="0 0 74 72" fill="none" xmlns="http://www.w3.org/2000/svg">
<path d="M66.2305 26.4977C66.2305 26.4977 59.4051 38.2149 39.263 25.707C28.3192 18.9097 13.3879 18.6711 5.69585 38.4391C12.6849 34.2541 29.2509 26.5414 42.7219 37.4749C42.7219 37.4749 28.5745 28.5273 6.80988 43.3988C10.8125 50.4906 21.6919 65.9836 38.0276 60.5781C59.6081 53.433 66.2305 26.4977 66.2305 26.4977Z" fill="#3A7F0D"/>
<path d="M6.90138 43.3382C22.6733 52.8395 42.8406 53.1176 58.9338 42.9948C64.2456 34.5355 66.2305 26.4977 66.2305 26.4977C66.2305 26.4977 59.4051 38.2149 39.2629 25.707C28.3192 18.9097 13.3879 18.6711 5.69585 38.4391C12.6849 34.2541 29.2509 26.5414 42.7219 37.4749C42.7212 37.4742 28.6137 28.5549 6.90138 43.3382Z" fill="#49A010"/>
</svg>
